<mxfile host="65bd71144e">
    <diagram id="KMcBjo04OGXmwL7UmeXN" name="Page-1">
        <mxGraphModel dx="1447" dy="671" grid="0" gridSize="10" guides="1" tooltips="1" connect="1" arrows="1" fold="1" page="1" pageScale="1" pageWidth="850" pageHeight="1100" math="0" shadow="0">
            <root>
                <mxCell id="0"/>
                <mxCell id="1" parent="0"/>
                <mxCell id="3" value="" style="shape=table;html=1;whiteSpace=wrap;startSize=0;container=1;collapsible=0;childLayout=tableLayout;fontSize=21;" vertex="1" parent="1">
                    <mxGeometry x="60" y="180" width="690" height="460" as="geometry"/>
                </mxCell>
                <mxCell id="4" value="" style="shape=tableRow;horizontal=0;startSize=0;swimlaneHead=0;swimlaneBody=0;top=0;left=0;bottom=0;right=0;collapsible=0;dropTarget=0;fillColor=none;points=[[0,0.5],[1,0.5]];portConstraint=eastwest;" vertex="1" parent="3">
                    <mxGeometry width="690" height="90" as="geometry"/>
                </mxCell>
                <mxCell id="5" value="Route" style="shape=partialRectangle;html=1;whiteSpace=wrap;connectable=0;fillColor=none;top=0;left=0;bottom=0;right=0;overflow=hidden;fontSize=21;" vertex="1" parent="4">
                    <mxGeometry width="231" height="90" as="geometry">
                        <mxRectangle width="231" height="90" as="alternateBounds"/>
                    </mxGeometry>
                </mxCell>
                <mxCell id="6" value="Page" style="shape=partialRectangle;html=1;whiteSpace=wrap;connectable=0;fillColor=none;top=0;left=0;bottom=0;right=0;overflow=hidden;fontSize=21;" vertex="1" parent="4">
                    <mxGeometry x="231" width="228" height="90" as="geometry">
                        <mxRectangle width="228" height="90" as="alternateBounds"/>
                    </mxGeometry>
                </mxCell>
                <mxCell id="7" value="Description" style="shape=partialRectangle;html=1;whiteSpace=wrap;connectable=0;fillColor=none;top=0;left=0;bottom=0;right=0;overflow=hidden;fontSize=21;" vertex="1" parent="4">
                    <mxGeometry x="459" width="231" height="90" as="geometry">
                        <mxRectangle width="231" height="90" as="alternateBounds"/>
                    </mxGeometry>
                </mxCell>
                <mxCell id="8" value="" style="shape=tableRow;horizontal=0;startSize=0;swimlaneHead=0;swimlaneBody=0;top=0;left=0;bottom=0;right=0;collapsible=0;dropTarget=0;fillColor=none;points=[[0,0.5],[1,0.5]];portConstraint=eastwest;" vertex="1" parent="3">
                    <mxGeometry y="90" width="690" height="190" as="geometry"/>
                </mxCell>
                <mxCell id="9" value="" style="shape=partialRectangle;html=1;whiteSpace=wrap;connectable=0;fillColor=none;top=0;left=0;bottom=0;right=0;overflow=hidden;" vertex="1" parent="8">
                    <mxGeometry width="231" height="190" as="geometry">
                        <mxRectangle width="231" height="190" as="alternateBounds"/>
                    </mxGeometry>
                </mxCell>
                <mxCell id="10" value="" style="shape=partialRectangle;html=1;whiteSpace=wrap;connectable=0;fillColor=none;top=0;left=0;bottom=0;right=0;overflow=hidden;" vertex="1" parent="8">
                    <mxGeometry x="231" width="228" height="190" as="geometry">
                        <mxRectangle width="228" height="190" as="alternateBounds"/>
                    </mxGeometry>
                </mxCell>
                <mxCell id="11" value="" style="shape=partialRectangle;html=1;whiteSpace=wrap;connectable=0;fillColor=none;top=0;left=0;bottom=0;right=0;overflow=hidden;" vertex="1" parent="8">
                    <mxGeometry x="459" width="231" height="190" as="geometry">
                        <mxRectangle width="231" height="190" as="alternateBounds"/>
                    </mxGeometry>
                </mxCell>
                <mxCell id="12" value="" style="shape=tableRow;horizontal=0;startSize=0;swimlaneHead=0;swimlaneBody=0;top=0;left=0;bottom=0;right=0;collapsible=0;dropTarget=0;fillColor=none;points=[[0,0.5],[1,0.5]];portConstraint=eastwest;" vertex="1" parent="3">
                    <mxGeometry y="280" width="690" height="180" as="geometry"/>
                </mxCell>
                <mxCell id="13" value="" style="shape=partialRectangle;html=1;whiteSpace=wrap;connectable=0;fillColor=none;top=0;left=0;bottom=0;right=0;overflow=hidden;" vertex="1" parent="12">
                    <mxGeometry width="231" height="180" as="geometry">
                        <mxRectangle width="231" height="180" as="alternateBounds"/>
                    </mxGeometry>
                </mxCell>
                <mxCell id="14" value="" style="shape=partialRectangle;html=1;whiteSpace=wrap;connectable=0;fillColor=none;top=0;left=0;bottom=0;right=0;overflow=hidden;" vertex="1" parent="12">
                    <mxGeometry x="231" width="228" height="180" as="geometry">
                        <mxRectangle width="228" height="180" as="alternateBounds"/>
                    </mxGeometry>
                </mxCell>
                <mxCell id="15" value="" style="shape=partialRectangle;html=1;whiteSpace=wrap;connectable=0;fillColor=none;top=0;left=0;bottom=0;right=0;overflow=hidden;pointerEvents=1;" vertex="1" parent="12">
                    <mxGeometry x="459" width="231" height="180" as="geometry">
                        <mxRectangle width="231" height="180" as="alternateBounds"/>
                    </mxGeometry>
                </mxCell>
                <mxCell id="17" value="" style="line;strokeWidth=2;html=1;" vertex="1" parent="1">
                    <mxGeometry x="60" y="370" width="690" height="10" as="geometry"/>
                </mxCell>
                <mxCell id="18" value="" style="line;strokeWidth=2;html=1;" vertex="1" parent="1">
                    <mxGeometry x="60" y="550" width="690" height="10" as="geometry"/>
                </mxCell>
                <mxCell id="19" value="/" style="text;strokeColor=none;fillColor=none;html=1;fontSize=24;fontStyle=1;verticalAlign=middle;align=center;" vertex="1" parent="1">
                    <mxGeometry x="130" y="300" width="100" height="40" as="geometry"/>
                </mxCell>
                <mxCell id="20" value="/about" style="text;html=1;align=center;verticalAlign=middle;resizable=0;points=[];autosize=1;strokeColor=none;fillColor=none;fontSize=23;" vertex="1" parent="1">
                    <mxGeometry x="135" y="400" width="90" height="40" as="geometry"/>
                </mxCell>
                <mxCell id="21" value="/new-post" style="text;html=1;align=center;verticalAlign=middle;resizable=0;points=[];autosize=1;strokeColor=none;fillColor=none;fontSize=23;" vertex="1" parent="1">
                    <mxGeometry x="115" y="490" width="120" height="40" as="geometry"/>
                </mxCell>
                <mxCell id="22" value="/all-drinks" style="text;html=1;align=center;verticalAlign=middle;resizable=0;points=[];autosize=1;strokeColor=none;fillColor=none;fontSize=23;" vertex="1" parent="1">
                    <mxGeometry x="115" y="580" width="120" height="40" as="geometry"/>
                </mxCell>
                <mxCell id="23" value="AllDrinksList" style="text;html=1;align=center;verticalAlign=middle;resizable=0;points=[];autosize=1;strokeColor=none;fillColor=none;fontSize=23;" vertex="1" parent="1">
                    <mxGeometry x="330" y="580" width="150" height="40" as="geometry"/>
                </mxCell>
                <mxCell id="24" value="NewPostForm" style="text;html=1;align=center;verticalAlign=middle;resizable=0;points=[];autosize=1;strokeColor=none;fillColor=none;fontSize=23;" vertex="1" parent="1">
                    <mxGeometry x="330" y="490" width="170" height="40" as="geometry"/>
                </mxCell>
                <mxCell id="25" value="&amp;nbsp; &amp;nbsp;About&lt;span style=&quot;white-space: pre;&quot;&gt;&#9;&lt;/span&gt;" style="text;html=1;align=center;verticalAlign=middle;resizable=0;points=[];autosize=1;strokeColor=none;fillColor=none;fontSize=23;" vertex="1" parent="1">
                    <mxGeometry x="340" y="400" width="130" height="40" as="geometry"/>
                </mxCell>
                <mxCell id="26" value="Home" style="text;html=1;align=center;verticalAlign=middle;resizable=0;points=[];autosize=1;strokeColor=none;fillColor=none;fontSize=23;" vertex="1" parent="1">
                    <mxGeometry x="365" y="300" width="80" height="40" as="geometry"/>
                </mxCell>
                <mxCell id="40" value="&lt;span style=&quot;font-size: 12px;&quot;&gt;Displays list of all drinks to user.&amp;nbsp;&lt;br&gt;User is able to search drink by name and&amp;nbsp;&lt;br&gt;by category.&lt;br&gt;&lt;/span&gt;" style="text;html=1;align=center;verticalAlign=middle;resizable=0;points=[];autosize=1;strokeColor=none;fillColor=none;fontSize=23;" vertex="1" parent="1">
                    <mxGeometry x="520" y="550" width="240" height="100" as="geometry"/>
                </mxCell>
                <mxCell id="41" value="User is able to create new drink and&lt;br&gt;add to all drinks route." style="text;html=1;align=center;verticalAlign=middle;resizable=0;points=[];autosize=1;strokeColor=none;fillColor=none;fontSize=12;" vertex="1" parent="1">
                    <mxGeometry x="525" y="480" width="210" height="40" as="geometry"/>
                </mxCell>
                <mxCell id="42" value="&lt;font style=&quot;font-size: 12px;&quot;&gt;Display Drink Galore introduction.&lt;/font&gt;" style="text;html=1;align=center;verticalAlign=middle;resizable=0;points=[];autosize=1;strokeColor=none;fillColor=none;fontSize=23;" vertex="1" parent="1">
                    <mxGeometry x="540" y="400" width="200" height="40" as="geometry"/>
                </mxCell>
                <mxCell id="43" value="&lt;span style=&quot;font-size: 12px;&quot;&gt;Display featured drinks on home page&lt;br&gt;each time user reloads.&lt;br&gt;&lt;/span&gt;" style="text;html=1;align=center;verticalAlign=middle;resizable=0;points=[];autosize=1;strokeColor=none;fillColor=none;fontSize=23;" vertex="1" parent="1">
                    <mxGeometry x="515" y="285" width="230" height="70" as="geometry"/>
                </mxCell>
            </root>
        </mxGraphModel>
    </diagram>
</mxfile>